<svg width="200" height="60" xmlns="http://www.w3.org/2000/svg"><defs><linearGradient x1="46.353%" y1="45.73%" x2="92.353%" y2="93.738%" id="a"><stop stop-color="#0062A5" offset="0%"/><stop stop-color="#AB53F1" offset="100%"/></linearGradient><linearGradient x1="92.198%" y1="53.027%" x2="-4.802%" y2="53.027%" id="b"><stop stop-color="#0062A5" offset="0%"/><stop stop-color="#B3D0E4" stop-opacity="0" offset="100%"/></linearGradient><linearGradient x1="7.91%" y1="48.703%" x2="105.91%" y2="48.703%" id="c"><stop stop-color="#0062A5" offset="0%"/><stop stop-color="#B3D0E4" stop-opacity="0" offset="100%"/></linearGradient></defs><g fill-rule="nonzero" fill="none"><path d="M73.06 31.42v6.95H70V21.63h.33l8.12 7.86a23.19 23.19 0 0 1 1.9 2.27s-.22-1.88-.22-3v-7h3.07v16.76h-.34l-8.12-7.86a25.37 25.37 0 0 1-1.92-2.27 29.69 29.69 0 0 1 .24 3.03zM87 38.37l7.08-16.74h.28l7.37 16.74h-3.49l-.76-1.88h-6.54l-.76 1.88H87zm6.23-7.61l-2.28 5.73h6.54l-2.35-5.73c-.47-1.17-1-3-1-3a30.75 30.75 0 0 1-.92 3h.01zm18.66 7.83a8.28 8.28 0 0 1-8.34-8.52 8.34 8.34 0 1 1 16.68 0 8.28 8.28 0 0 1-8.35 8.52h.01zm0-3.05c2.94 0 4.93-2.37 4.93-5.47 0-3.1-2-5.46-4.93-5.46-2.93 0-4.89 2.39-4.89 5.46s1.94 5.47 4.88 5.47h.01zm13.29 2.83v-16.6h1.71v15h7.6v1.56l-9.31.04zm20.37.2a8.18 8.18 0 0 1-8.26-8.5 8.28 8.28 0 1 1 16.55 0 8.19 8.19 0 0 1-8.3 8.5h.01zm0-1.59c3.77 0 6.52-2.95 6.52-6.91s-2.75-6.91-6.52-6.91c-3.77 0-6.49 3-6.49 6.91S141.8 37 145.54 37l.01-.02zm20.89 1.59a8.19 8.19 0 0 1-8.43-8.5 8.14 8.14 0 0 1 8.29-8.49 7.3 7.3 0 0 1 5.62 2.15l-1.16 1.19a5.76 5.76 0 0 0-4.46-1.76c-3.79 0-6.51 3-6.51 6.91a6.56 6.56 0 0 0 6.64 6.93 7.31 7.31 0 0 0 4.77-1.51v-3.44h-4.79v-1.56h6.4v5.78a8.88 8.88 0 0 1-6.38 2.3h.01zm11.78-.2v-16.6h1.73v16.6h-1.73zm15.16.2a8.19 8.19 0 0 1-8.27-8.5 8.19 8.19 0 0 1 8.27-8.49 7.15 7.15 0 0 1 6.39 3.22l-1.3 1a5.82 5.82 0 0 0-5.09-2.62c-3.77 0-6.49 3-6.49 6.91S189.6 37 193.37 37a6.13 6.13 0 0 0 5.3-2.78l1.33.95a7.66 7.66 0 0 1-6.63 3.4h.01z" fill="#0062A5"/><ellipse fill="#000" cx="29.08" cy="30" rx="29.08" ry="29.07"/><ellipse fill="url(#a)" cx="29.08" cy="30" rx="29.08" ry="29.07"/><path d="M46.48 23.42a9.21 9.21 0 0 0-13 0l-2.11 2.11 2.13 2.17 2.1-2.1a6.15 6.15 0 1 1 0 8.71L31.25 30l-2.17-2.18-4.35-4.35a9.23 9.23 0 1 0 0 13.07l2.1-2.11-2.17-2.23-2.11 2.11a6.15 6.15 0 1 1 0-8.71L26.9 30l2.92 2.91 3.6 3.61a9.23 9.23 0 1 0 13.06-13v-.1z" fill="#FFF"/><path fill="url(#b)" opacity=".8" transform="rotate(-45 23.777 35.004)" d="M21.002 32.229h5.55v5.55h-5.55z"/><path fill="url(#c)" opacity=".8" transform="rotate(-45 34.285 24.699)" d="M31.51 21.924h5.55v5.55h-5.55z"/></g></svg>